<?xml version="1.0" encoding="UTF-8" standalone="no"?>
<svg>
<metadata>built for 'CodeUS' braille table on Mon Nov 17 18:00:59 CET 2014</metadata>
<defs>
<font horiz-adv-x="610" id="Braille-CodeUS-thermo" vert-adv-y="">
<font-face ascent="650" descent="-250" font-family="Braille" font-stretch="normal" font-weight="normal" units-per-em="1024"/>
<missing-glyph/>
<glyph horiz-adv-x="610" unicode=" "/>
<glyph d="M 75 575 m -75, 0 a 75,75 0 1,1 150,0 a 75,75 0 1,1 -150,0 z " horiz-adv-x="610" unicode="A"/>
<glyph d="M 75 325 m -75, 0 a 75,75 0 1,1 150,0 a 75,75 0 1,1 -150,0 z " horiz-adv-x="610" unicode="1"/>
<glyph d="M 75 575 m -75, 0 a 75,75 0 1,1 150,0 a 75,75 0 1,1 -150,0 z M 75 325 m -75, 0 a 75,75 0 1,1 150,0 a 75,75 0 1,1 -150,0 z " horiz-adv-x="610" unicode="B"/>
<glyph d="M 75 75 m -75, 0 a 75,75 0 1,1 150,0 a 75,75 0 1,1 -150,0 z " horiz-adv-x="610" unicode="'"/>
<glyph d="M 75 575 m -75, 0 a 75,75 0 1,1 150,0 a 75,75 0 1,1 -150,0 z M 75 75 m -75, 0 a 75,75 0 1,1 150,0 a 75,75 0 1,1 -150,0 z " horiz-adv-x="610" unicode="K"/>
<glyph d="M 75 325 m -75, 0 a 75,75 0 1,1 150,0 a 75,75 0 1,1 -150,0 z M 75 75 m -75, 0 a 75,75 0 1,1 150,0 a 75,75 0 1,1 -150,0 z " horiz-adv-x="610" unicode="2"/>
<glyph d="M 75 575 m -75, 0 a 75,75 0 1,1 150,0 a 75,75 0 1,1 -150,0 z M 75 325 m -75, 0 a 75,75 0 1,1 150,0 a 75,75 0 1,1 -150,0 z M 75 75 m -75, 0 a 75,75 0 1,1 150,0 a 75,75 0 1,1 -150,0 z " horiz-adv-x="610" unicode="L"/>
<glyph d="M 325 575 m -75, 0 a 75,75 0 1,1 150,0 a 75,75 0 1,1 -150,0 z " horiz-adv-x="610" unicode="@"/>
<glyph d="M 75 575 m -75, 0 a 75,75 0 1,1 150,0 a 75,75 0 1,1 -150,0 z M 325 575 m -75, 0 a 75,75 0 1,1 150,0 a 75,75 0 1,1 -150,0 z " horiz-adv-x="610" unicode="C"/>
<glyph d="M 75 325 m -75, 0 a 75,75 0 1,1 150,0 a 75,75 0 1,1 -150,0 z M 325 575 m -75, 0 a 75,75 0 1,1 150,0 a 75,75 0 1,1 -150,0 z " horiz-adv-x="610" unicode="I"/>
<glyph d="M 75 575 m -75, 0 a 75,75 0 1,1 150,0 a 75,75 0 1,1 -150,0 z M 75 325 m -75, 0 a 75,75 0 1,1 150,0 a 75,75 0 1,1 -150,0 z M 325 575 m -75, 0 a 75,75 0 1,1 150,0 a 75,75 0 1,1 -150,0 z " horiz-adv-x="610" unicode="F"/>
<glyph d="M 75 75 m -75, 0 a 75,75 0 1,1 150,0 a 75,75 0 1,1 -150,0 z M 325 575 m -75, 0 a 75,75 0 1,1 150,0 a 75,75 0 1,1 -150,0 z " horiz-adv-x="610" unicode="/"/>
<glyph d="M 75 575 m -75, 0 a 75,75 0 1,1 150,0 a 75,75 0 1,1 -150,0 z M 75 75 m -75, 0 a 75,75 0 1,1 150,0 a 75,75 0 1,1 -150,0 z M 325 575 m -75, 0 a 75,75 0 1,1 150,0 a 75,75 0 1,1 -150,0 z " horiz-adv-x="610" unicode="M"/>
<glyph d="M 75 325 m -75, 0 a 75,75 0 1,1 150,0 a 75,75 0 1,1 -150,0 z M 75 75 m -75, 0 a 75,75 0 1,1 150,0 a 75,75 0 1,1 -150,0 z M 325 575 m -75, 0 a 75,75 0 1,1 150,0 a 75,75 0 1,1 -150,0 z " horiz-adv-x="610" unicode="S"/>
<glyph d="M 75 575 m -75, 0 a 75,75 0 1,1 150,0 a 75,75 0 1,1 -150,0 z M 75 325 m -75, 0 a 75,75 0 1,1 150,0 a 75,75 0 1,1 -150,0 z M 75 75 m -75, 0 a 75,75 0 1,1 150,0 a 75,75 0 1,1 -150,0 z M 325 575 m -75, 0 a 75,75 0 1,1 150,0 a 75,75 0 1,1 -150,0 z " horiz-adv-x="610" unicode="P"/>
<glyph d="M 325 325 m -75, 0 a 75,75 0 1,1 150,0 a 75,75 0 1,1 -150,0 z " horiz-adv-x="610" unicode="&quot;"/>
<glyph d="M 75 575 m -75, 0 a 75,75 0 1,1 150,0 a 75,75 0 1,1 -150,0 z M 325 325 m -75, 0 a 75,75 0 1,1 150,0 a 75,75 0 1,1 -150,0 z " horiz-adv-x="610" unicode="E"/>
<glyph d="M 75 325 m -75, 0 a 75,75 0 1,1 150,0 a 75,75 0 1,1 -150,0 z M 325 325 m -75, 0 a 75,75 0 1,1 150,0 a 75,75 0 1,1 -150,0 z " horiz-adv-x="610" unicode="3"/>
<glyph d="M 75 575 m -75, 0 a 75,75 0 1,1 150,0 a 75,75 0 1,1 -150,0 z M 75 325 m -75, 0 a 75,75 0 1,1 150,0 a 75,75 0 1,1 -150,0 z M 325 325 m -75, 0 a 75,75 0 1,1 150,0 a 75,75 0 1,1 -150,0 z " horiz-adv-x="610" unicode="H"/>
<glyph d="M 75 75 m -75, 0 a 75,75 0 1,1 150,0 a 75,75 0 1,1 -150,0 z M 325 325 m -75, 0 a 75,75 0 1,1 150,0 a 75,75 0 1,1 -150,0 z " horiz-adv-x="610" unicode="9"/>
<glyph d="M 75 575 m -75, 0 a 75,75 0 1,1 150,0 a 75,75 0 1,1 -150,0 z M 75 75 m -75, 0 a 75,75 0 1,1 150,0 a 75,75 0 1,1 -150,0 z M 325 325 m -75, 0 a 75,75 0 1,1 150,0 a 75,75 0 1,1 -150,0 z " horiz-adv-x="610" unicode="O"/>
<glyph d="M 75 325 m -75, 0 a 75,75 0 1,1 150,0 a 75,75 0 1,1 -150,0 z M 75 75 m -75, 0 a 75,75 0 1,1 150,0 a 75,75 0 1,1 -150,0 z M 325 325 m -75, 0 a 75,75 0 1,1 150,0 a 75,75 0 1,1 -150,0 z " horiz-adv-x="610" unicode="6"/>
<glyph d="M 75 575 m -75, 0 a 75,75 0 1,1 150,0 a 75,75 0 1,1 -150,0 z M 75 325 m -75, 0 a 75,75 0 1,1 150,0 a 75,75 0 1,1 -150,0 z M 75 75 m -75, 0 a 75,75 0 1,1 150,0 a 75,75 0 1,1 -150,0 z M 325 325 m -75, 0 a 75,75 0 1,1 150,0 a 75,75 0 1,1 -150,0 z " horiz-adv-x="610" unicode="R"/>
<glyph d="M 325 575 m -75, 0 a 75,75 0 1,1 150,0 a 75,75 0 1,1 -150,0 z M 325 325 m -75, 0 a 75,75 0 1,1 150,0 a 75,75 0 1,1 -150,0 z " horiz-adv-x="610" unicode="^"/>
<glyph d="M 75 575 m -75, 0 a 75,75 0 1,1 150,0 a 75,75 0 1,1 -150,0 z M 325 575 m -75, 0 a 75,75 0 1,1 150,0 a 75,75 0 1,1 -150,0 z M 325 325 m -75, 0 a 75,75 0 1,1 150,0 a 75,75 0 1,1 -150,0 z " horiz-adv-x="610" unicode="D"/>
<glyph d="M 75 325 m -75, 0 a 75,75 0 1,1 150,0 a 75,75 0 1,1 -150,0 z M 325 575 m -75, 0 a 75,75 0 1,1 150,0 a 75,75 0 1,1 -150,0 z M 325 325 m -75, 0 a 75,75 0 1,1 150,0 a 75,75 0 1,1 -150,0 z " horiz-adv-x="610" unicode="J"/>
<glyph d="M 75 575 m -75, 0 a 75,75 0 1,1 150,0 a 75,75 0 1,1 -150,0 z M 75 325 m -75, 0 a 75,75 0 1,1 150,0 a 75,75 0 1,1 -150,0 z M 325 575 m -75, 0 a 75,75 0 1,1 150,0 a 75,75 0 1,1 -150,0 z M 325 325 m -75, 0 a 75,75 0 1,1 150,0 a 75,75 0 1,1 -150,0 z " horiz-adv-x="610" unicode="G"/>
<glyph d="M 75 75 m -75, 0 a 75,75 0 1,1 150,0 a 75,75 0 1,1 -150,0 z M 325 575 m -75, 0 a 75,75 0 1,1 150,0 a 75,75 0 1,1 -150,0 z M 325 325 m -75, 0 a 75,75 0 1,1 150,0 a 75,75 0 1,1 -150,0 z " horiz-adv-x="610" unicode="&gt;"/>
<glyph d="M 75 575 m -75, 0 a 75,75 0 1,1 150,0 a 75,75 0 1,1 -150,0 z M 75 75 m -75, 0 a 75,75 0 1,1 150,0 a 75,75 0 1,1 -150,0 z M 325 575 m -75, 0 a 75,75 0 1,1 150,0 a 75,75 0 1,1 -150,0 z M 325 325 m -75, 0 a 75,75 0 1,1 150,0 a 75,75 0 1,1 -150,0 z " horiz-adv-x="610" unicode="N"/>
<glyph d="M 75 325 m -75, 0 a 75,75 0 1,1 150,0 a 75,75 0 1,1 -150,0 z M 75 75 m -75, 0 a 75,75 0 1,1 150,0 a 75,75 0 1,1 -150,0 z M 325 575 m -75, 0 a 75,75 0 1,1 150,0 a 75,75 0 1,1 -150,0 z M 325 325 m -75, 0 a 75,75 0 1,1 150,0 a 75,75 0 1,1 -150,0 z " horiz-adv-x="610" unicode="T"/>
<glyph d="M 75 575 m -75, 0 a 75,75 0 1,1 150,0 a 75,75 0 1,1 -150,0 z M 75 325 m -75, 0 a 75,75 0 1,1 150,0 a 75,75 0 1,1 -150,0 z M 75 75 m -75, 0 a 75,75 0 1,1 150,0 a 75,75 0 1,1 -150,0 z M 325 575 m -75, 0 a 75,75 0 1,1 150,0 a 75,75 0 1,1 -150,0 z M 325 325 m -75, 0 a 75,75 0 1,1 150,0 a 75,75 0 1,1 -150,0 z " horiz-adv-x="610" unicode="Q"/>
<glyph d="M 325 75 m -75, 0 a 75,75 0 1,1 150,0 a 75,75 0 1,1 -150,0 z " horiz-adv-x="610" unicode=","/>
<glyph d="M 75 575 m -75, 0 a 75,75 0 1,1 150,0 a 75,75 0 1,1 -150,0 z M 325 75 m -75, 0 a 75,75 0 1,1 150,0 a 75,75 0 1,1 -150,0 z " horiz-adv-x="610" unicode="*"/>
<glyph d="M 75 325 m -75, 0 a 75,75 0 1,1 150,0 a 75,75 0 1,1 -150,0 z M 325 75 m -75, 0 a 75,75 0 1,1 150,0 a 75,75 0 1,1 -150,0 z " horiz-adv-x="610" unicode="5"/>
<glyph d="M 75 575 m -75, 0 a 75,75 0 1,1 150,0 a 75,75 0 1,1 -150,0 z M 75 325 m -75, 0 a 75,75 0 1,1 150,0 a 75,75 0 1,1 -150,0 z M 325 75 m -75, 0 a 75,75 0 1,1 150,0 a 75,75 0 1,1 -150,0 z " horiz-adv-x="610" unicode="&lt;"/>
<glyph d="M 75 75 m -75, 0 a 75,75 0 1,1 150,0 a 75,75 0 1,1 -150,0 z M 325 75 m -75, 0 a 75,75 0 1,1 150,0 a 75,75 0 1,1 -150,0 z " horiz-adv-x="610" unicode="-"/>
<glyph d="M 75 575 m -75, 0 a 75,75 0 1,1 150,0 a 75,75 0 1,1 -150,0 z M 75 75 m -75, 0 a 75,75 0 1,1 150,0 a 75,75 0 1,1 -150,0 z M 325 75 m -75, 0 a 75,75 0 1,1 150,0 a 75,75 0 1,1 -150,0 z " horiz-adv-x="610" unicode="U"/>
<glyph d="M 75 325 m -75, 0 a 75,75 0 1,1 150,0 a 75,75 0 1,1 -150,0 z M 75 75 m -75, 0 a 75,75 0 1,1 150,0 a 75,75 0 1,1 -150,0 z M 325 75 m -75, 0 a 75,75 0 1,1 150,0 a 75,75 0 1,1 -150,0 z " horiz-adv-x="610" unicode="8"/>
<glyph d="M 75 575 m -75, 0 a 75,75 0 1,1 150,0 a 75,75 0 1,1 -150,0 z M 75 325 m -75, 0 a 75,75 0 1,1 150,0 a 75,75 0 1,1 -150,0 z M 75 75 m -75, 0 a 75,75 0 1,1 150,0 a 75,75 0 1,1 -150,0 z M 325 75 m -75, 0 a 75,75 0 1,1 150,0 a 75,75 0 1,1 -150,0 z " horiz-adv-x="610" unicode="V"/>
<glyph d="M 325 575 m -75, 0 a 75,75 0 1,1 150,0 a 75,75 0 1,1 -150,0 z M 325 75 m -75, 0 a 75,75 0 1,1 150,0 a 75,75 0 1,1 -150,0 z " horiz-adv-x="610" unicode="."/>
<glyph d="M 75 575 m -75, 0 a 75,75 0 1,1 150,0 a 75,75 0 1,1 -150,0 z M 325 575 m -75, 0 a 75,75 0 1,1 150,0 a 75,75 0 1,1 -150,0 z M 325 75 m -75, 0 a 75,75 0 1,1 150,0 a 75,75 0 1,1 -150,0 z " horiz-adv-x="610" unicode="%"/>
<glyph d="M 75 325 m -75, 0 a 75,75 0 1,1 150,0 a 75,75 0 1,1 -150,0 z M 325 575 m -75, 0 a 75,75 0 1,1 150,0 a 75,75 0 1,1 -150,0 z M 325 75 m -75, 0 a 75,75 0 1,1 150,0 a 75,75 0 1,1 -150,0 z " horiz-adv-x="610" unicode="["/>
<glyph d="M 75 575 m -75, 0 a 75,75 0 1,1 150,0 a 75,75 0 1,1 -150,0 z M 75 325 m -75, 0 a 75,75 0 1,1 150,0 a 75,75 0 1,1 -150,0 z M 325 575 m -75, 0 a 75,75 0 1,1 150,0 a 75,75 0 1,1 -150,0 z M 325 75 m -75, 0 a 75,75 0 1,1 150,0 a 75,75 0 1,1 -150,0 z " horiz-adv-x="610" unicode="$"/>
<glyph d="M 75 75 m -75, 0 a 75,75 0 1,1 150,0 a 75,75 0 1,1 -150,0 z M 325 575 m -75, 0 a 75,75 0 1,1 150,0 a 75,75 0 1,1 -150,0 z M 325 75 m -75, 0 a 75,75 0 1,1 150,0 a 75,75 0 1,1 -150,0 z " horiz-adv-x="610" unicode="+"/>
<glyph d="M 75 575 m -75, 0 a 75,75 0 1,1 150,0 a 75,75 0 1,1 -150,0 z M 75 75 m -75, 0 a 75,75 0 1,1 150,0 a 75,75 0 1,1 -150,0 z M 325 575 m -75, 0 a 75,75 0 1,1 150,0 a 75,75 0 1,1 -150,0 z M 325 75 m -75, 0 a 75,75 0 1,1 150,0 a 75,75 0 1,1 -150,0 z " horiz-adv-x="610" unicode="X"/>
<glyph d="M 75 325 m -75, 0 a 75,75 0 1,1 150,0 a 75,75 0 1,1 -150,0 z M 75 75 m -75, 0 a 75,75 0 1,1 150,0 a 75,75 0 1,1 -150,0 z M 325 575 m -75, 0 a 75,75 0 1,1 150,0 a 75,75 0 1,1 -150,0 z M 325 75 m -75, 0 a 75,75 0 1,1 150,0 a 75,75 0 1,1 -150,0 z " horiz-adv-x="610" unicode="!"/>
<glyph d="M 75 575 m -75, 0 a 75,75 0 1,1 150,0 a 75,75 0 1,1 -150,0 z M 75 325 m -75, 0 a 75,75 0 1,1 150,0 a 75,75 0 1,1 -150,0 z M 75 75 m -75, 0 a 75,75 0 1,1 150,0 a 75,75 0 1,1 -150,0 z M 325 575 m -75, 0 a 75,75 0 1,1 150,0 a 75,75 0 1,1 -150,0 z M 325 75 m -75, 0 a 75,75 0 1,1 150,0 a 75,75 0 1,1 -150,0 z " horiz-adv-x="610" unicode="&amp;"/>
<glyph d="M 325 325 m -75, 0 a 75,75 0 1,1 150,0 a 75,75 0 1,1 -150,0 z M 325 75 m -75, 0 a 75,75 0 1,1 150,0 a 75,75 0 1,1 -150,0 z " horiz-adv-x="610" unicode=";"/>
<glyph d="M 75 575 m -75, 0 a 75,75 0 1,1 150,0 a 75,75 0 1,1 -150,0 z M 325 325 m -75, 0 a 75,75 0 1,1 150,0 a 75,75 0 1,1 -150,0 z M 325 75 m -75, 0 a 75,75 0 1,1 150,0 a 75,75 0 1,1 -150,0 z " horiz-adv-x="610" unicode=":"/>
<glyph d="M 75 325 m -75, 0 a 75,75 0 1,1 150,0 a 75,75 0 1,1 -150,0 z M 325 325 m -75, 0 a 75,75 0 1,1 150,0 a 75,75 0 1,1 -150,0 z M 325 75 m -75, 0 a 75,75 0 1,1 150,0 a 75,75 0 1,1 -150,0 z " horiz-adv-x="610" unicode="4"/>
<glyph d="M 75 575 m -75, 0 a 75,75 0 1,1 150,0 a 75,75 0 1,1 -150,0 z M 75 325 m -75, 0 a 75,75 0 1,1 150,0 a 75,75 0 1,1 -150,0 z M 325 325 m -75, 0 a 75,75 0 1,1 150,0 a 75,75 0 1,1 -150,0 z M 325 75 m -75, 0 a 75,75 0 1,1 150,0 a 75,75 0 1,1 -150,0 z " horiz-adv-x="610" unicode="\"/>
<glyph d="M 75 75 m -75, 0 a 75,75 0 1,1 150,0 a 75,75 0 1,1 -150,0 z M 325 325 m -75, 0 a 75,75 0 1,1 150,0 a 75,75 0 1,1 -150,0 z M 325 75 m -75, 0 a 75,75 0 1,1 150,0 a 75,75 0 1,1 -150,0 z " horiz-adv-x="610" unicode="0"/>
<glyph d="M 75 575 m -75, 0 a 75,75 0 1,1 150,0 a 75,75 0 1,1 -150,0 z M 75 75 m -75, 0 a 75,75 0 1,1 150,0 a 75,75 0 1,1 -150,0 z M 325 325 m -75, 0 a 75,75 0 1,1 150,0 a 75,75 0 1,1 -150,0 z M 325 75 m -75, 0 a 75,75 0 1,1 150,0 a 75,75 0 1,1 -150,0 z " horiz-adv-x="610" unicode="Z"/>
<glyph d="M 75 325 m -75, 0 a 75,75 0 1,1 150,0 a 75,75 0 1,1 -150,0 z M 75 75 m -75, 0 a 75,75 0 1,1 150,0 a 75,75 0 1,1 -150,0 z M 325 325 m -75, 0 a 75,75 0 1,1 150,0 a 75,75 0 1,1 -150,0 z M 325 75 m -75, 0 a 75,75 0 1,1 150,0 a 75,75 0 1,1 -150,0 z " horiz-adv-x="610" unicode="7"/>
<glyph d="M 75 575 m -75, 0 a 75,75 0 1,1 150,0 a 75,75 0 1,1 -150,0 z M 75 325 m -75, 0 a 75,75 0 1,1 150,0 a 75,75 0 1,1 -150,0 z M 75 75 m -75, 0 a 75,75 0 1,1 150,0 a 75,75 0 1,1 -150,0 z M 325 325 m -75, 0 a 75,75 0 1,1 150,0 a 75,75 0 1,1 -150,0 z M 325 75 m -75, 0 a 75,75 0 1,1 150,0 a 75,75 0 1,1 -150,0 z " horiz-adv-x="610" unicode="("/>
<glyph d="M 325 575 m -75, 0 a 75,75 0 1,1 150,0 a 75,75 0 1,1 -150,0 z M 325 325 m -75, 0 a 75,75 0 1,1 150,0 a 75,75 0 1,1 -150,0 z M 325 75 m -75, 0 a 75,75 0 1,1 150,0 a 75,75 0 1,1 -150,0 z " horiz-adv-x="610" unicode="_"/>
<glyph d="M 75 575 m -75, 0 a 75,75 0 1,1 150,0 a 75,75 0 1,1 -150,0 z M 325 575 m -75, 0 a 75,75 0 1,1 150,0 a 75,75 0 1,1 -150,0 z M 325 325 m -75, 0 a 75,75 0 1,1 150,0 a 75,75 0 1,1 -150,0 z M 325 75 m -75, 0 a 75,75 0 1,1 150,0 a 75,75 0 1,1 -150,0 z " horiz-adv-x="610" unicode="?"/>
<glyph d="M 75 325 m -75, 0 a 75,75 0 1,1 150,0 a 75,75 0 1,1 -150,0 z M 325 575 m -75, 0 a 75,75 0 1,1 150,0 a 75,75 0 1,1 -150,0 z M 325 325 m -75, 0 a 75,75 0 1,1 150,0 a 75,75 0 1,1 -150,0 z M 325 75 m -75, 0 a 75,75 0 1,1 150,0 a 75,75 0 1,1 -150,0 z " horiz-adv-x="610" unicode="W"/>
<glyph d="M 75 575 m -75, 0 a 75,75 0 1,1 150,0 a 75,75 0 1,1 -150,0 z M 75 325 m -75, 0 a 75,75 0 1,1 150,0 a 75,75 0 1,1 -150,0 z M 325 575 m -75, 0 a 75,75 0 1,1 150,0 a 75,75 0 1,1 -150,0 z M 325 325 m -75, 0 a 75,75 0 1,1 150,0 a 75,75 0 1,1 -150,0 z M 325 75 m -75, 0 a 75,75 0 1,1 150,0 a 75,75 0 1,1 -150,0 z " horiz-adv-x="610" unicode="]"/>
<glyph d="M 75 75 m -75, 0 a 75,75 0 1,1 150,0 a 75,75 0 1,1 -150,0 z M 325 575 m -75, 0 a 75,75 0 1,1 150,0 a 75,75 0 1,1 -150,0 z M 325 325 m -75, 0 a 75,75 0 1,1 150,0 a 75,75 0 1,1 -150,0 z M 325 75 m -75, 0 a 75,75 0 1,1 150,0 a 75,75 0 1,1 -150,0 z " horiz-adv-x="610" unicode="#"/>
<glyph d="M 75 575 m -75, 0 a 75,75 0 1,1 150,0 a 75,75 0 1,1 -150,0 z M 75 75 m -75, 0 a 75,75 0 1,1 150,0 a 75,75 0 1,1 -150,0 z M 325 575 m -75, 0 a 75,75 0 1,1 150,0 a 75,75 0 1,1 -150,0 z M 325 325 m -75, 0 a 75,75 0 1,1 150,0 a 75,75 0 1,1 -150,0 z M 325 75 m -75, 0 a 75,75 0 1,1 150,0 a 75,75 0 1,1 -150,0 z " horiz-adv-x="610" unicode="Y"/>
<glyph d="M 75 325 m -75, 0 a 75,75 0 1,1 150,0 a 75,75 0 1,1 -150,0 z M 75 75 m -75, 0 a 75,75 0 1,1 150,0 a 75,75 0 1,1 -150,0 z M 325 575 m -75, 0 a 75,75 0 1,1 150,0 a 75,75 0 1,1 -150,0 z M 325 325 m -75, 0 a 75,75 0 1,1 150,0 a 75,75 0 1,1 -150,0 z M 325 75 m -75, 0 a 75,75 0 1,1 150,0 a 75,75 0 1,1 -150,0 z " horiz-adv-x="610" unicode=")"/>
<glyph d="M 75 575 m -75, 0 a 75,75 0 1,1 150,0 a 75,75 0 1,1 -150,0 z M 75 325 m -75, 0 a 75,75 0 1,1 150,0 a 75,75 0 1,1 -150,0 z M 75 75 m -75, 0 a 75,75 0 1,1 150,0 a 75,75 0 1,1 -150,0 z M 325 575 m -75, 0 a 75,75 0 1,1 150,0 a 75,75 0 1,1 -150,0 z M 325 325 m -75, 0 a 75,75 0 1,1 150,0 a 75,75 0 1,1 -150,0 z M 325 75 m -75, 0 a 75,75 0 1,1 150,0 a 75,75 0 1,1 -150,0 z " horiz-adv-x="610" unicode="="/>
</font>
</defs>
</svg>
